# xmcd CD database file
#
# Track frame offsets:
#	150
#	23520
#	42315
#	56760
#	73527
#	95410
#	113737
#	126587
#	141780
#	159160
#	182770
#	192960
#	207085
#
# Disc length: 3115 seconds
#
# Revision: 0
# Processed by: cddbd v1.4PL0 Copyright (c) Steve Scherf et al.
# Submitted via: Feurio! 1.65 - http://www.feurio.com
#
DISCID=b20c290d
DTITLE=Snatch It Back - Evil
DYEAR=1991
DGENRE=blues
TTITLE0=Evil
TTITLE1=Good To You
TTITLE2=It's My Soul
TTITLE3=Hey Hey Louise
TTITLE4=Going Down
TTITLE5=Out Of Control
TTITLE6=I Wish You Would
TTITLE7=One Step Forward
TTITLE8=Checkin' Up On My Baby
TTITLE9=Boogie
TTITLE10=Don't Start Me Talking
TTITLE11=Treat Her Right
TTITLE12=Wang Dang Doodle
EXTD=
EXTT0=
EXTT1=
EXTT2=
EXTT3=
EXTT4=
EXTT5=
EXTT6=
EXTT7=
EXTT8=
EXTT9=
EXTT10=
EXTT11=
EXTT12=
PLAYORDER=
